<?xml version="1.0" encoding="utf-8"?>
<!-- Generator: Adobe Illustrator 25.0.0, SVG Export Plug-In . SVG Version: 6.00 Build 0)  -->
<svg version="1.1" id="katman_1" xmlns="http://www.w3.org/2000/svg" xmlns:xlink="http://www.w3.org/1999/xlink" x="0px" y="0px"
	 viewBox="0 0 4240.8 2741.8" style="enable-background:new 0 0 4240.8 2741.8;" xml:space="preserve">
<style type="text/css">
	.st0{fill:#FF0000;}
</style>
<path class="st0" d="M1752.9,2473.9l220.4-220.5L1752.9,2033l147-147l220.5,220.5l220.5-220.5l147,147l-220.5,220.5l220.5,220.5
	l-147,147l-220.5-220.5l-220.5,220.5L1752.9,2473.9z M1753,708.8l220.5-220.5L1753,267.9l147-147l220.5,220.5l220.5-220.5l147,147
	l-220.5,220.5l220.5,220.5l-147,147l-220.5-220.5L1900,855.8L1753,708.8z M1753,1592.1l220.5-220.5L1753,1151.2l147-147l220.5,220.5
	l220.5-220.5l147,147l-220.5,220.5l220.5,220.5l-147,147l-220.5-220.5l-220.5,220.5L1753,1592.1z"/>
</svg>
